<svg fill="#000000" xmlns="http://www.w3.org/2000/svg"  viewBox="0 0 100 100" width="100px" height="100px"><path d="M69.961,17.654h-39c-7.168,0-13,5.832-13,13v39c0,7.168,5.832,13,13,13h39c7.168,0,13-5.832,13-13v-39C82.961,23.485,77.129,17.654,69.961,17.654z M80.961,69.654c0,6.065-4.935,11-11,11h-39c-6.065,0-11-4.935-11-11v-39c0-6.065,4.935-11,11-11h39c6.065,0,11,4.935,11,11V69.654z"/><path d="M77.461,47.654c-0.276,0-0.5,0.224-0.5,0.5v18.663c0,5.424-4.413,9.837-9.837,9.837H33.798c-5.424,0-9.837-4.413-9.837-9.837V33.49c0-5.424,4.413-9.837,9.837-9.837h33.663c0.276,0,0.5-0.224,0.5-0.5s-0.224-0.5-0.5-0.5H33.798c-5.976,0-10.837,4.861-10.837,10.837v33.326c0,5.976,4.861,10.837,10.837,10.837h33.326c5.976,0,10.837-4.861,10.837-10.837V48.154C77.961,47.877,77.737,47.654,77.461,47.654z"/><path d="M77.461 41.654c-.276 0-.5.224-.5.5v4c0 .276.224.5.5.5s.5-.224.5-.5v-4C77.961 41.877 77.737 41.654 77.461 41.654zM76.961 38.154v2c0 .276.224.5.5.5s.5-.224.5-.5v-2c0-.276-.224-.5-.5-.5S76.961 37.877 76.961 38.154zM62.458 37.264c-.815-.81-1.662-1.357-2.746-1.776-1.09-.423-2.228-.64-3.719-.705-1.535-.066-2.052-.088-5.993-.088-3.979 0-4.465.011-6.024.09-1.459.063-2.597.28-3.688.704-1.085.418-1.932.966-2.746 1.776-.815.81-1.367 1.652-1.788 2.729-.426 1.084-.645 2.215-.709 3.694-.067 1.526-.089 2.04-.089 5.959 0 3.955.011 4.438.09 5.986.063 1.451.282 2.582.708 3.667.421 1.078.973 1.92 1.788 2.73.814.81 1.661 1.357 2.746 1.776 1.09.423 2.228.64 3.719.705C45.542 64.577 46.059 64.6 50 64.6c3.979 0 4.465-.011 6.023-.09 1.459-.063 2.597-.28 3.688-.704 1.084-.418 1.931-.966 2.746-1.776.815-.81 1.367-1.652 1.788-2.729.426-1.084.645-2.215.709-3.689.067-1.526.09-2.041.09-5.964 0-3.956-.011-4.439-.091-5.986-.063-1.452-.282-2.583-.708-3.668C63.824 38.916 63.273 38.074 62.458 37.264zM63.955 55.59c-.059 1.337-.256 2.369-.641 3.347-.368.941-.849 1.677-1.562 2.385-.711.707-1.452 1.186-2.402 1.552-.986.382-2.025.579-3.374.637C54.437 63.589 53.955 63.6 50 63.6c-3.92 0-4.432-.022-5.98-.089-1.347-.059-2.386-.255-3.371-.637-.95-.367-1.69-.845-2.401-1.552-.712-.708-1.193-1.443-1.562-2.386-.384-.979-.582-2.01-.64-3.35-.078-1.529-.089-2.008-.089-5.939 0-3.898.022-4.406.089-5.942.059-1.337.256-2.37.641-3.347.368-.942.85-1.678 1.562-2.385.711-.707 1.452-1.186 2.402-1.552.986-.382 2.025-.579 3.374-.637 1.54-.078 2.022-.089 5.977-.089 3.919 0 4.431.022 5.98.089 1.347.059 2.386.255 3.371.637.949.366 1.69.845 2.401 1.552.712.708 1.194 1.443 1.562 2.385l0 .001c.384.978.582 2.009.64 3.349.079 1.528.09 2.007.09 5.938C64.045 53.549 64.022 54.058 63.955 55.59z"/><path d="M49.989 41.72c-4.397 0-7.975 3.556-7.975 7.927 0 4.371 3.578 7.927 7.975 7.927s7.974-3.556 7.974-7.927C57.963 45.277 54.386 41.72 49.989 41.72zM49.989 56.574c-3.846 0-6.975-3.107-6.975-6.927 0-3.819 3.129-6.927 6.975-6.927s6.974 3.107 6.974 6.927C56.963 53.467 53.835 56.574 49.989 56.574zM58.03 39.195c-1.236 0-2.242 1.001-2.242 2.231 0 1.23 1.006 2.231 2.242 2.231s2.242-1.001 2.242-2.231C60.273 40.196 59.267 39.195 58.03 39.195zM58.03 42.657c-.685 0-1.242-.552-1.242-1.231 0-.679.557-1.231 1.242-1.231s1.242.552 1.242 1.231C59.273 42.105 58.716 42.657 58.03 42.657z"/></svg>