<svg width="0" height="0" class="hidden">
  <symbol fill="#000000" xmlns="http://www.w3.org/2000/svg" viewBox="0 0 100 100" id="facebook">
    <path fill="none" stroke="#000000" stroke-linecap="round" stroke-miterlimit="10" d="M79.484 57.186c-.4 1.734-.957 3.441-1.671 5.098-.182.422-.374.84-.576 1.255M78.411 39.02c1.488 3.808 2.186 7.86 2.085 11.898-.017.659-.054 1.318-.113 1.975M27.735 29.228c5.171-5.538 11.932-8.707 18.926-9.462M29.278 72.284c-10.538-9.839-12.565-25.37-5.752-37.341M75.203 67.306c-.852 1.241-1.806 2.434-2.865 3.568-2.642 2.83-5.7 5.041-8.991 6.628"></path>
    <path fill="none" stroke="#000000" stroke-miterlimit="10" d="M44.5,84V59.5h-9v-9h9l0-8.971c-0.195-8.049,5.897-15.88,20-11.538L64.471,38.5l-4.901-0.032c-3.77,0-5.069,1.246-5.069,3.962v8.07h10.776l-1.894,9H54.5V84"></path>
    <path fill="none" stroke="#000000" stroke-miterlimit="10" stroke-width="2" d="M50 15A35 35 0 1 0 50 85A35 35 0 1 0 50 15Z"></path>
  </symbol>
  <symbol fill="#000000" xmlns="http://www.w3.org/2000/svg" viewBox="0 0 100 100" id="github">
    <path fill="#000000" d="M58.976,77c-0.276,0-0.5-0.224-0.5-0.5v-8.845c0-2.431-1.456-4.668-3.708-5.701	c-0.214-0.098-0.331-0.332-0.28-0.561C54.538,61.164,54.741,61,54.976,61h2.449c6.621,0,12.008-5.366,12.008-11.961	c0-3.064-1.166-5.987-3.282-8.229c-0.109-0.115-0.157-0.275-0.129-0.432c0.333-1.854,0.39-4.725-0.409-7.37	c-3.682,0.162-6.795,2.725-7.987,3.848C57.533,36.943,57.401,37,57.274,37H44.469c-0.127,0-0.249-0.048-0.342-0.135l-0.092-0.087	c-3.078-2.927-5.829-3.686-7.697-3.77c-0.662,2.162-0.941,4.762-0.712,6.729c0.019,0.16-0.042,0.319-0.161,0.428	c-2.506,2.275-3.943,5.51-3.943,8.875c0,6.595,5.387,11.96,12.007,11.96h2.447c0.235,0,0.438,0.164,0.488,0.394	c0.051,0.229-0.066,0.463-0.28,0.561c-1.974,0.904-3.397,2.676-3.715,4.625C42.43,66.822,42.221,67,41.976,67	c-2.333,0-5.191-0.271-6.598-2.38c-2.311-3.467-3.28-3.467-4.403-3.467c-0.14,0-0.385,0.023-0.448,0.178	c-0.086,0.206,0.031,0.756,0.702,1.428c1.287,1.287,1.311,1.335,2.554,3.82C34.885,68.785,37.795,70,41.976,70	c0.276,0,0.5,0.224,0.5,0.5v6c0,0.276-0.224,0.5-0.5,0.5s-0.5-0.224-0.5-0.5v-5.505c-5.797-0.131-7.866-2.525-8.588-3.969	c-1.194-2.387-1.194-2.387-2.366-3.56c-0.869-0.869-1.213-1.81-0.919-2.518c0.209-0.505,0.709-0.795,1.372-0.795	c1.588,0,2.81,0.272,5.235,3.912c1.069,1.604,3.359,1.9,5.356,1.932c0.362-1.545,1.309-2.965,2.63-3.997h-0.668	c-7.172,0-13.007-5.813-13.007-12.959c0-3.562,1.485-6.988,4.084-9.442c-0.209-2.203,0.128-4.956,0.896-7.257	C35.57,32.138,35.761,32,35.976,32c2.036,0,5.192,0.696,8.692,4h12.409c1.427-1.311,4.847-4,8.898-4	c0.215,0,0.406,0.138,0.475,0.342c0.935,2.802,0.928,5.901,0.598,7.965c2.185,2.404,3.385,5.495,3.385,8.732	C70.433,56.186,64.598,62,57.425,62h-0.693c1.707,1.368,2.744,3.442,2.744,5.655V76.5C59.476,76.776,59.252,77,58.976,77z"></path>
    <path fill="#000000" d="M65.5,77h-31C28.159,77,23,71.841,23,65.5v-31C23,28.159,28.159,23,34.5,23h31	c0.276,0,0.5,0.224,0.5,0.5S65.776,24,65.5,24h-31C28.71,24,24,28.71,24,34.5v31C24,71.29,28.71,76,34.5,76h31	C71.29,76,76,71.29,76,65.5v-15c0-0.276,0.224-0.5,0.5-0.5s0.5,0.224,0.5,0.5v15C77,71.841,71.841,77,65.5,77z"></path>
    <path fill="#000000" d="M76.5,48.5c-0.276,0-0.5-0.224-0.5-0.5v-6.5c0-0.276,0.224-0.5,0.5-0.5s0.5,0.224,0.5,0.5V48	C77,48.276,76.776,48.5,76.5,48.5z"></path>
    <path fill="#000000" d="M76.5,38.5c-0.276,0-0.5-0.224-0.5-0.5v-3.5c0-0.276,0.224-0.5,0.5-0.5s0.5,0.224,0.5,0.5V38	C77,38.276,76.776,38.5,76.5,38.5z"></path>
    <path fill="#000000" d="M71,83H29c-6.617,0-12-5.383-12-12V29c0-6.617,5.383-12,12-12h42c6.617,0,12,5.383,12,12v42	C83,77.617,77.617,83,71,83z M29,19c-5.514,0-10,4.486-10,10v42c0,5.514,4.486,10,10,10h42c5.514,0,10-4.486,10-10V29	c0-5.514-4.486-10-10-10H29z"></path>
  </symbol>
  <symbol fill="#000000" xmlns="http://www.w3.org/2000/svg" viewBox="0 0 100 100" id="instagram">
    <path d="M69.961,17.654h-39c-7.168,0-13,5.832-13,13v39c0,7.168,5.832,13,13,13h39c7.168,0,13-5.832,13-13v-39C82.961,23.485,77.129,17.654,69.961,17.654z M80.961,69.654c0,6.065-4.935,11-11,11h-39c-6.065,0-11-4.935-11-11v-39c0-6.065,4.935-11,11-11h39c6.065,0,11,4.935,11,11V69.654z"></path>
    <path d="M77.461,47.654c-0.276,0-0.5,0.224-0.5,0.5v18.663c0,5.424-4.413,9.837-9.837,9.837H33.798c-5.424,0-9.837-4.413-9.837-9.837V33.49c0-5.424,4.413-9.837,9.837-9.837h33.663c0.276,0,0.5-0.224,0.5-0.5s-0.224-0.5-0.5-0.5H33.798c-5.976,0-10.837,4.861-10.837,10.837v33.326c0,5.976,4.861,10.837,10.837,10.837h33.326c5.976,0,10.837-4.861,10.837-10.837V48.154C77.961,47.877,77.737,47.654,77.461,47.654z"></path>
    <path d="M77.461 41.654c-.276 0-.5.224-.5.5v4c0 .276.224.5.5.5s.5-.224.5-.5v-4C77.961 41.877 77.737 41.654 77.461 41.654zM76.961 38.154v2c0 .276.224.5.5.5s.5-.224.5-.5v-2c0-.276-.224-.5-.5-.5S76.961 37.877 76.961 38.154zM62.458 37.264c-.815-.81-1.662-1.357-2.746-1.776-1.09-.423-2.228-.64-3.719-.705-1.535-.066-2.052-.088-5.993-.088-3.979 0-4.465.011-6.024.09-1.459.063-2.597.28-3.688.704-1.085.418-1.932.966-2.746 1.776-.815.81-1.367 1.652-1.788 2.729-.426 1.084-.645 2.215-.709 3.694-.067 1.526-.089 2.04-.089 5.959 0 3.955.011 4.438.09 5.986.063 1.451.282 2.582.708 3.667.421 1.078.973 1.92 1.788 2.73.814.81 1.661 1.357 2.746 1.776 1.09.423 2.228.64 3.719.705C45.542 64.577 46.059 64.6 50 64.6c3.979 0 4.465-.011 6.023-.09 1.459-.063 2.597-.28 3.688-.704 1.084-.418 1.931-.966 2.746-1.776.815-.81 1.367-1.652 1.788-2.729.426-1.084.645-2.215.709-3.689.067-1.526.09-2.041.09-5.964 0-3.956-.011-4.439-.091-5.986-.063-1.452-.282-2.583-.708-3.668C63.824 38.916 63.273 38.074 62.458 37.264zM63.955 55.59c-.059 1.337-.256 2.369-.641 3.347-.368.941-.849 1.677-1.562 2.385-.711.707-1.452 1.186-2.402 1.552-.986.382-2.025.579-3.374.637C54.437 63.589 53.955 63.6 50 63.6c-3.92 0-4.432-.022-5.98-.089-1.347-.059-2.386-.255-3.371-.637-.95-.367-1.69-.845-2.401-1.552-.712-.708-1.193-1.443-1.562-2.386-.384-.979-.582-2.01-.64-3.35-.078-1.529-.089-2.008-.089-5.939 0-3.898.022-4.406.089-5.942.059-1.337.256-2.37.641-3.347.368-.942.85-1.678 1.562-2.385.711-.707 1.452-1.186 2.402-1.552.986-.382 2.025-.579 3.374-.637 1.54-.078 2.022-.089 5.977-.089 3.919 0 4.431.022 5.98.089 1.347.059 2.386.255 3.371.637.949.366 1.69.845 2.401 1.552.712.708 1.194 1.443 1.562 2.385l0 .001c.384.978.582 2.009.64 3.349.079 1.528.09 2.007.09 5.938C64.045 53.549 64.022 54.058 63.955 55.59z"></path>
    <path d="M49.989 41.72c-4.397 0-7.975 3.556-7.975 7.927 0 4.371 3.578 7.927 7.975 7.927s7.974-3.556 7.974-7.927C57.963 45.277 54.386 41.72 49.989 41.72zM49.989 56.574c-3.846 0-6.975-3.107-6.975-6.927 0-3.819 3.129-6.927 6.975-6.927s6.974 3.107 6.974 6.927C56.963 53.467 53.835 56.574 49.989 56.574zM58.03 39.195c-1.236 0-2.242 1.001-2.242 2.231 0 1.23 1.006 2.231 2.242 2.231s2.242-1.001 2.242-2.231C60.273 40.196 59.267 39.195 58.03 39.195zM58.03 42.657c-.685 0-1.242-.552-1.242-1.231 0-.679.557-1.231 1.242-1.231s1.242.552 1.242 1.231C59.273 42.105 58.716 42.657 58.03 42.657z"></path>
  </symbol>
  <symbol fill="#000000" xmlns="http://www.w3.org/2000/svg" viewBox="0 0 100 100" id="linkedin">
    <path d="M69.307,17.654h-39c-7.168,0-13,5.832-13,13v39c0,7.168,5.832,13,13,13h39c7.168,0,13-5.832,13-13v-39C82.307,23.485,76.476,17.654,69.307,17.654z M80.307,69.654c0,6.065-4.935,11-11,11h-39c-6.065,0-11-4.935-11-11v-39c0-6.065,4.935-11,11-11h39c6.065,0,11,4.935,11,11V69.654z"></path>
    <path d="M76.807,47.654c-0.276,0-0.5,0.224-0.5,0.5v18.663c0,5.424-4.413,9.837-9.837,9.837H33.144c-5.424,0-9.837-4.413-9.837-9.837V33.49c0-5.424,4.413-9.837,9.837-9.837h33.663c0.276,0,0.5-0.224,0.5-0.5s-0.224-0.5-0.5-0.5H33.144c-5.976,0-10.837,4.861-10.837,10.837v33.326c0,5.976,4.861,10.837,10.837,10.837H66.47c5.976,0,10.837-4.861,10.837-10.837V48.154C77.307,47.877,77.083,47.654,76.807,47.654z"></path>
    <path d="M76.807 41.654c-.276 0-.5.224-.5.5v4c0 .276.224.5.5.5s.5-.224.5-.5v-4C77.307 41.877 77.083 41.654 76.807 41.654zM76.307 38.154v2c0 .276.224.5.5.5s.5-.224.5-.5v-2c0-.276-.224-.5-.5-.5S76.307 37.877 76.307 38.154zM35.807 44.654c-.276 0-.5.224-.5.5v19c0 .276.224.5.5.5h6c.276 0 .5-.224.5-.5v-19c0-.276-.224-.5-.5-.5H35.807zM41.307 63.654h-5v-18h5V63.654zM38.825 35.695c-2.087 0-3.602 1.463-3.602 3.479s1.484 3.479 3.565 3.479c2.087 0 3.602-1.463 3.602-3.491C42.34 37.121 40.873 35.695 38.825 35.695zM38.753 41.654c-1.489 0-2.53-1.02-2.53-2.479 0-1.46 1.07-2.479 2.602-2.479 1.521 0 2.528.978 2.565 2.479C41.391 40.634 40.321 41.654 38.753 41.654zM45.375 64.506c.094.094.222.147.354.147h6.077c.276 0 .5-.224.5-.5V53.54c0-.612.059-1.067.176-1.354.243-.6 1-1.997 2.784-1.997 2.668 0 2.956 2.708 2.956 3.876l.083 10.092c.002.275.226.496.5.496h6c.276 0 .5-.224.5-.5V53.974c0-3.33-.821-5.838-2.441-7.456-1.32-1.318-3.099-1.986-5.288-1.986-2.2.013-3.983.669-5.271 2.05v-1.43c0-.276-.224-.5-.5-.5H45.73c-.137 0-.267.056-.362.155-.094.099-.144.232-.138.368.081 1.749 0 18.803 0 18.975C45.229 64.284 45.282 64.412 45.375 64.506zM46.243 45.654h5.064v2.304c-.056.141-.033.304.043.441.089.157.276.255.457.255.208 0 .386-.165.461-.364.73-1.2 2.077-2.756 5.292-2.756.006 0 .011 0 .017 0 1.915 0 3.457.57 4.582 1.693 1.425 1.423 2.148 3.693 2.148 6.748v9.679h-5.004l-.08-9.592c0-3.005-1.516-4.873-3.956-4.873-1.66 0-3.047.98-3.71 2.62-.168.412-.25.978-.25 1.731v10.113h-5.075C46.245 60.957 46.296 48.681 46.243 45.654z"></path>
  </symbol>
  <symbol fill="#000000" xmlns="http://www.w3.org/2000/svg" viewBox="0 0 100 100" id="vk">
    <path d="M50,86c-19.851,0-36-16.149-36-36s16.149-36,36-36s36,16.149,36,36S69.851,86,50,86z M50,16c-18.748,0-34,15.252-34,34	s15.252,34,34,34s34-15.252,34-34S68.748,16,50,16z"></path>
    <path d="M65.5,24.227c-0.087,0-0.175-0.022-0.255-0.07c-0.638-0.377-1.299-0.735-1.967-1.065c-0.247-0.123-0.349-0.422-0.227-0.67	c0.123-0.249,0.425-0.347,0.67-0.227c0.689,0.341,1.374,0.711,2.033,1.102c0.237,0.141,0.316,0.447,0.176,0.685	C65.837,24.139,65.671,24.227,65.5,24.227z M68.5,26.25c-0.106,0-0.213-0.034-0.304-0.103c-0.322-0.247-0.65-0.486-0.983-0.72	c-0.226-0.159-0.281-0.47-0.122-0.696c0.158-0.228,0.47-0.28,0.696-0.123c0.345,0.241,0.683,0.49,1.017,0.745	c0.22,0.167,0.261,0.481,0.094,0.701C68.799,26.182,68.65,26.25,68.5,26.25z"></path>
    <path d="M50,81c-17.094,0-31-13.907-31-31s13.906-31,31-31c3.668,0,7.259,0.635,10.672,1.886c0.26,0.095,0.393,0.382,0.298,0.642	s-0.383,0.393-0.642,0.297C57.025,20.614,53.551,20,50,20c-16.542,0-30,13.458-30,30s13.458,30,30,30s30-13.458,30-30	c0-8.439-3.585-16.535-9.836-22.213c-0.205-0.186-0.22-0.502-0.034-0.707c0.187-0.204,0.503-0.219,0.706-0.034	C77.296,32.914,81,41.28,81,50C81,67.093,67.094,81,50,81z"></path>
    <path fill="none" stroke="#000000" stroke-miterlimit="10" d="M66.543,40.096c0.071-0.232,0.066-0.446,0.057-0.638	c-0.023-0.555-0.206-0.958-1.105-0.958h-4.014c-1.014,0-1.481,0.613-1.754,1.228c0,0-2.502,5.15-5.387,8.547	c-0.935,0.983-1.411,1.225-1.917,1.225c-0.271,0-0.957-0.595-0.957-1.495v-7.95c0-1.064-0.265-1.555-1.122-1.555h-6.938	c-0.624,0-0.949,0.491-0.949,0.983c0,1.023,0.886,1.268,1.043,4.134v5.555c0,1.349,0.065,1.328-0.441,1.328	c-1.365,0-4.051-4.333-5.85-10.362c-0.389-1.187-0.779-1.638-1.792-1.638h-4.367c-1.17,0-1.365,0.573-1.365,1.187	c0,1.106,1.234,7.082,6.256,13.955c3.642,4.983,8.439,7.858,12.687,7.858c2.573,0,2.837-0.655,2.837-1.677v-4.557	c0.002-1.228,0.282-1.665,1.101-1.665c0.584,0,1.776,0.617,4.076,3.3c2.653,3.094,3.134,4.6,4.655,4.6h4.014	c0.932,0,1.296-0.391,1.317-1.15c0.005-0.193-0.023-0.409-0.086-0.65c-0.297-0.883-1.491-3.042-3.193-5.1	c-0.943-1.139-2.026-2.268-2.454-2.881c-0.287-0.4-0.396-0.682-0.382-0.952c0.014-0.284,0.161-0.554,0.382-0.931	C60.857,49.836,66.037,42.551,66.543,40.096z"></path>
  </symbol>
</svg>