<svg fill="#000000" xmlns="http://www.w3.org/2000/svg"  viewBox="0 0 100 100" width="100px" height="100px"><path d="M50,86c-19.851,0-36-16.149-36-36s16.149-36,36-36s36,16.149,36,36S69.851,86,50,86z M50,16c-18.748,0-34,15.252-34,34	s15.252,34,34,34s34-15.252,34-34S68.748,16,50,16z"/><path d="M65.5,24.227c-0.087,0-0.175-0.022-0.255-0.07c-0.638-0.377-1.299-0.735-1.967-1.065c-0.247-0.123-0.349-0.422-0.227-0.67	c0.123-0.249,0.425-0.347,0.67-0.227c0.689,0.341,1.374,0.711,2.033,1.102c0.237,0.141,0.316,0.447,0.176,0.685	C65.837,24.139,65.671,24.227,65.5,24.227z M68.5,26.25c-0.106,0-0.213-0.034-0.304-0.103c-0.322-0.247-0.65-0.486-0.983-0.72	c-0.226-0.159-0.281-0.47-0.122-0.696c0.158-0.228,0.47-0.28,0.696-0.123c0.345,0.241,0.683,0.49,1.017,0.745	c0.22,0.167,0.261,0.481,0.094,0.701C68.799,26.182,68.65,26.25,68.5,26.25z"/><path d="M50,81c-17.094,0-31-13.907-31-31s13.906-31,31-31c3.668,0,7.259,0.635,10.672,1.886c0.26,0.095,0.393,0.382,0.298,0.642	s-0.383,0.393-0.642,0.297C57.025,20.614,53.551,20,50,20c-16.542,0-30,13.458-30,30s13.458,30,30,30s30-13.458,30-30	c0-8.439-3.585-16.535-9.836-22.213c-0.205-0.186-0.22-0.502-0.034-0.707c0.187-0.204,0.503-0.219,0.706-0.034	C77.296,32.914,81,41.28,81,50C81,67.093,67.094,81,50,81z"/><path fill="none" stroke="#000000" stroke-miterlimit="10" d="M66.543,40.096c0.071-0.232,0.066-0.446,0.057-0.638	c-0.023-0.555-0.206-0.958-1.105-0.958h-4.014c-1.014,0-1.481,0.613-1.754,1.228c0,0-2.502,5.15-5.387,8.547	c-0.935,0.983-1.411,1.225-1.917,1.225c-0.271,0-0.957-0.595-0.957-1.495v-7.95c0-1.064-0.265-1.555-1.122-1.555h-6.938	c-0.624,0-0.949,0.491-0.949,0.983c0,1.023,0.886,1.268,1.043,4.134v5.555c0,1.349,0.065,1.328-0.441,1.328	c-1.365,0-4.051-4.333-5.85-10.362c-0.389-1.187-0.779-1.638-1.792-1.638h-4.367c-1.17,0-1.365,0.573-1.365,1.187	c0,1.106,1.234,7.082,6.256,13.955c3.642,4.983,8.439,7.858,12.687,7.858c2.573,0,2.837-0.655,2.837-1.677v-4.557	c0.002-1.228,0.282-1.665,1.101-1.665c0.584,0,1.776,0.617,4.076,3.3c2.653,3.094,3.134,4.6,4.655,4.6h4.014	c0.932,0,1.296-0.391,1.317-1.15c0.005-0.193-0.023-0.409-0.086-0.65c-0.297-0.883-1.491-3.042-3.193-5.1	c-0.943-1.139-2.026-2.268-2.454-2.881c-0.287-0.4-0.396-0.682-0.382-0.952c0.014-0.284,0.161-0.554,0.382-0.931	C60.857,49.836,66.037,42.551,66.543,40.096z"/></svg>